<svg width="48" height="48" viewBox="0 0 48 48" xmlns="http://www.w3.org/2000/svg">
  <defs>
    <linearGradient id="bg" x1="0%" y1="0%" x2="100%" y2="100%">
      <stop offset="0%" style="stop-color:#4A90E2;stop-opacity:1" />
      <stop offset="100%" style="stop-color:#357ABD;stop-opacity:1" />
    </linearGradient>
  </defs>
  
  <!-- Background -->
  <rect width="48" height="48" rx="8" fill="url(#bg)"/>
  
  <!-- Book -->
  <rect x="12" y="12" width="24" height="20" rx="2" fill="white"/>
  <line x1="24" y1="12" x2="24" y2="32" stroke="#4A90E2" stroke-width="1"/>
  
  <!-- Text lines -->
  <line x1="15" y1="18" x2="21" y2="18" stroke="#4A90E2" stroke-width="1"/>
  <line x1="15" y1="21" x2="21" y2="21" stroke="#4A90E2" stroke-width="1"/>
  <line x1="15" y1="24" x2="21" y2="24" stroke="#4A90E2" stroke-width="1"/>
  <line x1="27" y1="18" x2="33" y2="18" stroke="#4A90E2" stroke-width="1"/>
  <line x1="27" y1="21" x2="33" y2="21" stroke="#4A90E2" stroke-width="1"/>
  <line x1="27" y1="24" x2="33" y2="24" stroke="#4A90E2" stroke-width="1"/>
  
  <!-- Sound waves -->
  <path d="M38 20c2 0 2 8 0 8" stroke="#F39C12" stroke-width="2" fill="none"/>
  <path d="M40 22c1 0 1 4 0 4" stroke="#F39C12" stroke-width="2" fill="none"/>
  <path d="M42 23c0.5 0 0.5 2 0 2" stroke="#F39C12" stroke-width="2" fill="none"/>
  
  <!-- AI indicator -->
  <circle cx="38" cy="38" r="6" fill="#F39C12"/>
  <text x="38" y="42" text-anchor="middle" font-family="Arial, sans-serif" font-size="8" fill="white" font-weight="bold">AI</text>
</svg>